<?xml version="1.0" standalone="no"?>
<!DOCTYPE svg PUBLIC "-//W3C//DTD SVG 20010904//EN"
 "http://www.w3.org/TR/2001/REC-SVG-20010904/DTD/svg10.dtd">
<svg version="1.0" xmlns="http://www.w3.org/2000/svg"
 width="1600.000000pt" height="1600.000000pt" viewBox="0 0 1600.000000 1600.000000"
 preserveAspectRatio="xMidYMid meet">

<g transform="translate(0.000000,1600.000000) scale(0.100000,-0.100000)"
fill="#000000" stroke="none">
<path d="M8620 13994 c-25 -2 -108 -8 -185 -14 -840 -65 -1676 -343 -2338
-776 -200 -131 -340 -246 -546 -449 l-203 -201 125 -176 126 -177 -117 -62
c-977 -517 -1805 -1473 -2342 -2704 -49 -112 -249 -607 -257 -636 -3 -12 18
-29 76 -63 45 -26 81 -49 81 -52 0 -3 -30 -47 -67 -99 -398 -555 -703 -1247
-849 -1925 -89 -416 -114 -663 -121 -1216 l-6 -431 54 -6 c30 -4 199 -7 377
-7 303 0 323 -1 318 -17 -41 -134 -99 -391 -136 -608 -83 -489 -116 -950 -107
-1504 4 -195 9 -356 12 -360 12 -11 930 -6 1095 7 479 37 888 101 1240 192 63
17 123 33 133 36 16 5 17 -15 17 -318 0 -178 3 -347 6 -375 l7 -53 326 0 c339
0 565 10 786 36 881 100 1697 409 2427 916 69 48 129 88 132 88 3 0 26 -36 52
-80 25 -44 48 -80 51 -80 17 0 613 244 769 315 740 337 1360 770 1874 1311
278 292 534 644 709 976 l62 117 185 -131 c156 -110 188 -128 199 -117 405
424 611 712 848 1189 156 312 261 581 350 895 224 783 277 1632 146 2330 -142
754 -504 1567 -1027 2301 l-50 71 571 564 c315 310 573 568 574 574 2 5 -153
169 -345 363 l-347 353 -578 -571 c-318 -313 -580 -570 -583 -570 -4 0 -34 19
-68 43 -114 80 -340 223 -471 299 -760 441 -1472 691 -2210 779 -161 19 -649
34 -775 23z m719 -1024 c736 -98 1531 -440 2291 -988 170 -123 205 -156 330
-323 576 -766 916 -1530 1017 -2284 21 -161 24 -617 4 -805 -62 -603 -208
-1115 -460 -1615 -53 -104 -101 -190 -108 -190 -6 0 -44 38 -85 85 -396 455
-672 1012 -773 1561 -45 245 -47 288 -54 890 l-6 585 -350 -213 c-413 -252
-472 -286 -585 -337 -259 -118 -632 -213 -1060 -270 -231 -31 -467 -52 -477
-43 -9 10 13 263 43 485 56 421 149 786 265 1043 51 113 85 172 342 594 l213
350 -585 6 c-602 7 -645 9 -890 54 -551 101 -1094 370 -1566 775 -125 108
-128 89 30 178 483 272 1096 441 1765 486 144 10 551 -4 699 -24z m-2891
-1599 c425 -319 884 -553 1362 -695 124 -37 199 -56 420 -105 23 -5 34 -13 32
-22 -2 -8 -23 -90 -47 -184 -24 -93 -58 -242 -75 -330 -17 -88 -33 -169 -35
-181 -11 -51 -601 -361 -955 -501 -1067 -422 -2041 -475 -2900 -156 -52 19
-96 37 -98 38 -6 5 109 228 196 380 217 380 442 683 722 969 369 378 754 645
1175 815 55 23 102 41 105 41 3 0 47 -31 98 -69z m1565 -3358 c2 -1 141 -6
309 -10 l306 -8 -68 -145 c-217 -466 -378 -959 -480 -1471 l-11 -57 -134 -72
c-502 -268 -1148 -501 -1717 -619 -201 -41 -476 -85 -612 -97 l-79 -7 7 77
c11 122 53 394 86 559 116 575 316 1146 591 1688 l110 217 42 6 c85 14 317 68
473 111 321 89 665 216 989 364 l170 77 8 -305 c4 -168 9 -306 10 -308z m2567
180 c6 -38 30 -137 51 -222 138 -540 378 -1037 731 -1513 l79 -107 -36 -93
c-223 -562 -668 -1117 -1240 -1547 -155 -117 -327 -233 -485 -326 -126 -75
-439 -239 -444 -234 -6 8 -40 99 -73 194 -326 957 -182 2121 408 3285 79 156
242 446 262 466 2 2 75 18 163 35 149 28 542 124 552 134 11 11 21 -10 32 -72z
m-6500 11 c288 -98 631 -166 1012 -202 l77 -7 -38 -86 c-191 -428 -376 -1006
-486 -1516 -4 -16 -30 -32 -114 -67 -272 -115 -631 -204 -1046 -260 -140 -19
-446 -48 -451 -43 -7 6 25 220 52 351 115 564 326 1073 639 1541 98 147 232
325 244 325 3 0 53 -16 111 -36z m422 -3330 l-4 -376 376 4 c207 2 376 0 376
-4 0 -5 -16 -68 -35 -140 -30 -116 -78 -341 -99 -461 -7 -36 -12 -40 -74 -69
-312 -140 -898 -265 -1429 -304 l-93 -7 0 35 c0 56 29 330 50 473 44 299 110
584 187 810 52 152 106 274 125 279 7 2 87 18 178 35 91 18 224 47 295 66 72
18 135 34 140 34 7 1 9 -128 7 -375z m3492 254 c3 -18 10 -87 16 -153 25 -263
98 -607 186 -873 24 -73 44 -134 44 -137 0 -2 -60 -49 -132 -103 -597 -447
-1277 -723 -2041 -827 l-48 -6 6 73 c54 611 152 1076 301 1429 44 104 47 109
82 118 21 4 109 25 197 46 408 95 1008 296 1315 439 30 14 58 26 62 26 4 0 9
-15 12 -32z"/>
</g>
</svg>
