<?xml version="1.0" encoding="UTF-8" standalone="no"?><svg xmlns="http://www.w3.org/2000/svg" xmlns:xlink="http://www.w3.org/1999/xlink" contentStyleType="text/css" height="380px" preserveAspectRatio="none" style="width:1071px;height:380px;background:#FFFFFF;" version="1.1" viewBox="0 0 1071 380" width="1071px" zoomAndPan="magnify"><defs/><g><!--MD5=[f4d134b883c3cc45571da9c280ad87cf]
class Brewery--><g id="elem_Brewery"><rect codeLine="2" fill="#F1F1F1" height="100.8281" id="Brewery" rx="2.5" ry="2.5" style="stroke:#181818;stroke-width:0.5;" width="171" x="7" y="273"/><ellipse cx="62.75" cy="289" fill="#ADD1B2" rx="11" ry="11" style="stroke:#181818;stroke-width:1.0;"/><path d="M61.6094,289.7969 L61.6094,292.2969 L65.9375,292.2969 L65.9375,291.375 Q65.9375,290.7656 66.1719,290.5 Q66.4219,290.2344 66.7969,290.2344 Q67.1719,290.2344 67.4063,290.5 Q67.6406,290.7656 67.6406,291.375 L67.6406,294 L59.6406,294 Q59.0156,294 58.75,293.7656 Q58.5,293.5313 58.5,293.1406 Q58.5,292.7656 58.7656,292.5313 Q59.0313,292.2969 59.6406,292.2969 L59.9063,292.2969 L59.9063,285.6406 L59.6406,285.6406 Q59.0156,285.6406 58.75,285.4063 Q58.5,285.1719 58.5,284.7813 Q58.5,284.4063 58.75,284.1719 Q59.0156,283.9375 59.6406,283.9375 L67.2656,283.9375 L67.2656,286.5313 Q67.2656,287.1406 67.0313,287.4063 Q66.8125,287.6563 66.4219,287.6563 Q66.0469,287.6563 65.8125,287.4063 Q65.5781,287.1406 65.5781,286.5313 L65.5781,285.6406 L61.6094,285.6406 L61.6094,288.0938 L63.0938,288.0938 Q63.0938,287.4375 63.2188,287.25 Q63.4844,286.8438 63.9531,286.8438 Q64.3281,286.8438 64.5625,287.1094 Q64.7969,287.3594 64.7969,287.9688 L64.7969,289.9375 Q64.7969,290.4844 64.6719,290.6719 Q64.4063,291.0625 63.9531,291.0625 Q63.4844,291.0625 63.2188,290.6563 Q63.0938,290.4688 63.0938,289.7969 L61.6094,289.7969 Z " fill="#000000"/><text fill="#000000" font-family="sans-serif" font-size="14" lengthAdjust="spacing" textLength="51" x="83.25" y="294.7285">Brewery</text><line style="stroke:#181818;stroke-width:0.5;" x1="8" x2="177" y1="305" y2="305"/><text fill="#000000" font-family="sans-serif" font-size="14" lengthAdjust="spacing" textLength="159" x="13" y="323.5332">PK | id: cuid «generated»</text><line style="stroke:#181818;stroke-width:1.0;" x1="8" x2="177" y1="330.6094" y2="330.6094"/><ellipse cx="18" cy="344.9141" fill="#000000" rx="3" ry="3" style="stroke:#000000;stroke-width:1.0;"/><text fill="#000000" font-family="sans-serif" font-size="14" lengthAdjust="spacing" textLength="65" x="27" y="349.1426">name: text</text><text fill="#000000" font-family="sans-serif" font-size="14" lengthAdjust="spacing" textLength="99" x="27" y="366.752">description: text</text></g><!--MD5=[6029bd9eaad172140eff99b2ee6a63ba]
class Beer--><g id="elem_Beer"><rect codeLine="9" fill="#F1F1F1" height="206.4844" id="Beer" rx="2.5" ry="2.5" style="stroke:#181818;stroke-width:0.5;" width="180" x="155.5" y="7"/><ellipse cx="226.25" cy="23" fill="#ADD1B2" rx="11" ry="11" style="stroke:#181818;stroke-width:1.0;"/><path d="M225.1094,23.7969 L225.1094,26.2969 L229.4375,26.2969 L229.4375,25.375 Q229.4375,24.7656 229.6719,24.5 Q229.9219,24.2344 230.2969,24.2344 Q230.6719,24.2344 230.9063,24.5 Q231.1406,24.7656 231.1406,25.375 L231.1406,28 L223.1406,28 Q222.5156,28 222.25,27.7656 Q222,27.5313 222,27.1406 Q222,26.7656 222.2656,26.5313 Q222.5313,26.2969 223.1406,26.2969 L223.4063,26.2969 L223.4063,19.6406 L223.1406,19.6406 Q222.5156,19.6406 222.25,19.4063 Q222,19.1719 222,18.7813 Q222,18.4063 222.25,18.1719 Q222.5156,17.9375 223.1406,17.9375 L230.7656,17.9375 L230.7656,20.5313 Q230.7656,21.1406 230.5313,21.4063 Q230.3125,21.6563 229.9219,21.6563 Q229.5469,21.6563 229.3125,21.4063 Q229.0781,21.1406 229.0781,20.5313 L229.0781,19.6406 L225.1094,19.6406 L225.1094,22.0938 L226.5938,22.0938 Q226.5938,21.4375 226.7188,21.25 Q226.9844,20.8438 227.4531,20.8438 Q227.8281,20.8438 228.0625,21.1094 Q228.2969,21.3594 228.2969,21.9688 L228.2969,23.9375 Q228.2969,24.4844 228.1719,24.6719 Q227.9063,25.0625 227.4531,25.0625 Q226.9844,25.0625 226.7188,24.6563 Q226.5938,24.4688 226.5938,23.7969 L225.1094,23.7969 Z " fill="#000000"/><text fill="#000000" font-family="sans-serif" font-size="14" lengthAdjust="spacing" textLength="30" x="246.75" y="28.7285">Beer</text><line style="stroke:#181818;stroke-width:0.5;" x1="156.5" x2="334.5" y1="39" y2="39"/><text fill="#000000" font-family="sans-serif" font-size="14" lengthAdjust="spacing" textLength="159" x="161.5" y="57.5332">PK | id: cuid «generated»</text><line style="stroke:#181818;stroke-width:1.0;" x1="156.5" x2="334.5" y1="64.6094" y2="64.6094"/><ellipse cx="166.5" cy="78.9141" fill="#000000" rx="3" ry="3" style="stroke:#000000;stroke-width:1.0;"/><text fill="#000000" font-family="sans-serif" font-size="14" lengthAdjust="spacing" textLength="154" x="175.5" y="83.1426">breweryName: text «FK»</text><ellipse cx="166.5" cy="96.5234" fill="#000000" rx="3" ry="3" style="stroke:#000000;stroke-width:1.0;"/><text fill="#000000" font-family="sans-serif" font-size="14" lengthAdjust="spacing" textLength="65" x="175.5" y="100.752">name: text</text><text fill="#000000" font-family="sans-serif" font-size="14" lengthAdjust="spacing" textLength="99" x="175.5" y="118.3613">description: text</text><ellipse cx="166.5" cy="131.7422" fill="#000000" rx="3" ry="3" style="stroke:#000000;stroke-width:1.0;"/><text fill="#000000" font-family="sans-serif" font-size="14" lengthAdjust="spacing" textLength="57" x="175.5" y="135.9707">type: text</text><ellipse cx="166.5" cy="149.3516" fill="#000000" rx="3" ry="3" style="stroke:#000000;stroke-width:1.0;"/><text fill="#000000" font-family="sans-serif" font-size="14" lengthAdjust="spacing" textLength="74" x="175.5" y="153.5801">vol: decimal</text><text fill="#000000" font-family="sans-serif" font-size="14" lengthAdjust="spacing" textLength="42" x="175.5" y="171.1895">ibu: int</text><ellipse cx="166.5" cy="184.5703" fill="#000000" rx="3" ry="3" style="stroke:#000000;stroke-width:1.0;"/><text fill="#000000" font-family="sans-serif" font-size="14" lengthAdjust="spacing" textLength="47" x="175.5" y="188.7988">size: int</text><text fill="#000000" font-family="sans-serif" font-size="14" lengthAdjust="spacing" textLength="92" x="175.5" y="206.4082">image_url: text</text></g><!--MD5=[82c662709ad38b82b03ecfe36a52b2ef]
class Distillery--><g id="elem_Distillery"><rect codeLine="22" fill="#F1F1F1" height="100.8281" id="Distillery" rx="2.5" ry="2.5" style="stroke:#181818;stroke-width:0.5;" width="171" x="424" y="273"/><ellipse cx="478.75" cy="289" fill="#ADD1B2" rx="11" ry="11" style="stroke:#181818;stroke-width:1.0;"/><path d="M477.6094,289.7969 L477.6094,292.2969 L481.9375,292.2969 L481.9375,291.375 Q481.9375,290.7656 482.1719,290.5 Q482.4219,290.2344 482.7969,290.2344 Q483.1719,290.2344 483.4063,290.5 Q483.6406,290.7656 483.6406,291.375 L483.6406,294 L475.6406,294 Q475.0156,294 474.75,293.7656 Q474.5,293.5313 474.5,293.1406 Q474.5,292.7656 474.7656,292.5313 Q475.0313,292.2969 475.6406,292.2969 L475.9063,292.2969 L475.9063,285.6406 L475.6406,285.6406 Q475.0156,285.6406 474.75,285.4063 Q474.5,285.1719 474.5,284.7813 Q474.5,284.4063 474.75,284.1719 Q475.0156,283.9375 475.6406,283.9375 L483.2656,283.9375 L483.2656,286.5313 Q483.2656,287.1406 483.0313,287.4063 Q482.8125,287.6563 482.4219,287.6563 Q482.0469,287.6563 481.8125,287.4063 Q481.5781,287.1406 481.5781,286.5313 L481.5781,285.6406 L477.6094,285.6406 L477.6094,288.0938 L479.0938,288.0938 Q479.0938,287.4375 479.2188,287.25 Q479.4844,286.8438 479.9531,286.8438 Q480.3281,286.8438 480.5625,287.1094 Q480.7969,287.3594 480.7969,287.9688 L480.7969,289.9375 Q480.7969,290.4844 480.6719,290.6719 Q480.4063,291.0625 479.9531,291.0625 Q479.4844,291.0625 479.2188,290.6563 Q479.0938,290.4688 479.0938,289.7969 L477.6094,289.7969 Z " fill="#000000"/><text fill="#000000" font-family="sans-serif" font-size="14" lengthAdjust="spacing" textLength="53" x="499.25" y="294.7285">Distillery</text><line style="stroke:#181818;stroke-width:0.5;" x1="425" x2="594" y1="305" y2="305"/><text fill="#000000" font-family="sans-serif" font-size="14" lengthAdjust="spacing" textLength="159" x="430" y="323.5332">PK | id: cuid «generated»</text><line style="stroke:#181818;stroke-width:1.0;" x1="425" x2="594" y1="330.6094" y2="330.6094"/><ellipse cx="435" cy="344.9141" fill="#000000" rx="3" ry="3" style="stroke:#000000;stroke-width:1.0;"/><text fill="#000000" font-family="sans-serif" font-size="14" lengthAdjust="spacing" textLength="65" x="444" y="349.1426">name: text</text><text fill="#000000" font-family="sans-serif" font-size="14" lengthAdjust="spacing" textLength="99" x="444" y="366.752">description: text</text></g><!--MD5=[801df8f804079873f48e4dec2e573695]
class Spirit--><g id="elem_Spirit"><rect codeLine="29" fill="#F1F1F1" height="188.875" id="Spirit" rx="2.5" ry="2.5" style="stroke:#181818;stroke-width:0.5;" width="181" x="471" y="15.5"/><ellipse cx="541.25" cy="31.5" fill="#ADD1B2" rx="11" ry="11" style="stroke:#181818;stroke-width:1.0;"/><path d="M540.1094,32.2969 L540.1094,34.7969 L544.4375,34.7969 L544.4375,33.875 Q544.4375,33.2656 544.6719,33 Q544.9219,32.7344 545.2969,32.7344 Q545.6719,32.7344 545.9063,33 Q546.1406,33.2656 546.1406,33.875 L546.1406,36.5 L538.1406,36.5 Q537.5156,36.5 537.25,36.2656 Q537,36.0313 537,35.6406 Q537,35.2656 537.2656,35.0313 Q537.5313,34.7969 538.1406,34.7969 L538.4063,34.7969 L538.4063,28.1406 L538.1406,28.1406 Q537.5156,28.1406 537.25,27.9063 Q537,27.6719 537,27.2813 Q537,26.9063 537.25,26.6719 Q537.5156,26.4375 538.1406,26.4375 L545.7656,26.4375 L545.7656,29.0313 Q545.7656,29.6406 545.5313,29.9063 Q545.3125,30.1563 544.9219,30.1563 Q544.5469,30.1563 544.3125,29.9063 Q544.0781,29.6406 544.0781,29.0313 L544.0781,28.1406 L540.1094,28.1406 L540.1094,30.5938 L541.5938,30.5938 Q541.5938,29.9375 541.7188,29.75 Q541.9844,29.3438 542.4531,29.3438 Q542.8281,29.3438 543.0625,29.6094 Q543.2969,29.8594 543.2969,30.4688 L543.2969,32.4375 Q543.2969,32.9844 543.1719,33.1719 Q542.9063,33.5625 542.4531,33.5625 Q541.9844,33.5625 541.7188,33.1563 Q541.5938,32.9688 541.5938,32.2969 L540.1094,32.2969 Z " fill="#000000"/><text fill="#000000" font-family="sans-serif" font-size="14" lengthAdjust="spacing" textLength="32" x="561.75" y="37.2285">Spirit</text><line style="stroke:#181818;stroke-width:0.5;" x1="472" x2="651" y1="47.5" y2="47.5"/><text fill="#000000" font-family="sans-serif" font-size="14" lengthAdjust="spacing" textLength="159" x="477" y="66.0332">PK | id: cuid «generated»</text><line style="stroke:#181818;stroke-width:1.0;" x1="472" x2="651" y1="73.1094" y2="73.1094"/><ellipse cx="482" cy="87.4141" fill="#000000" rx="3" ry="3" style="stroke:#000000;stroke-width:1.0;"/><text fill="#000000" font-family="sans-serif" font-size="14" lengthAdjust="spacing" textLength="155" x="491" y="91.6426">distilleryName: text «FK»</text><ellipse cx="482" cy="105.0234" fill="#000000" rx="3" ry="3" style="stroke:#000000;stroke-width:1.0;"/><text fill="#000000" font-family="sans-serif" font-size="14" lengthAdjust="spacing" textLength="65" x="491" y="109.252">name: text</text><text fill="#000000" font-family="sans-serif" font-size="14" lengthAdjust="spacing" textLength="99" x="491" y="126.8613">description: text</text><ellipse cx="482" cy="140.2422" fill="#000000" rx="3" ry="3" style="stroke:#000000;stroke-width:1.0;"/><text fill="#000000" font-family="sans-serif" font-size="14" lengthAdjust="spacing" textLength="57" x="491" y="144.4707">type: text</text><ellipse cx="482" cy="157.8516" fill="#000000" rx="3" ry="3" style="stroke:#000000;stroke-width:1.0;"/><text fill="#000000" font-family="sans-serif" font-size="14" lengthAdjust="spacing" textLength="74" x="491" y="162.0801">vol: decimal</text><ellipse cx="482" cy="175.4609" fill="#000000" rx="3" ry="3" style="stroke:#000000;stroke-width:1.0;"/><text fill="#000000" font-family="sans-serif" font-size="14" lengthAdjust="spacing" textLength="47" x="491" y="179.6895">size: int</text><text fill="#000000" font-family="sans-serif" font-size="14" lengthAdjust="spacing" textLength="92" x="491" y="197.2988">image_url: text</text></g><!--MD5=[09f6300b79db95b647f166ba391ee011]
class BeerStock--><g id="elem_BeerStock"><rect codeLine="41" fill="#F1F1F1" height="100.8281" id="BeerStock" rx="2.5" ry="2.5" style="stroke:#181818;stroke-width:0.5;" width="171" x="213" y="273"/><ellipse cx="261.75" cy="289" fill="#ADD1B2" rx="11" ry="11" style="stroke:#181818;stroke-width:1.0;"/><path d="M260.6094,289.7969 L260.6094,292.2969 L264.9375,292.2969 L264.9375,291.375 Q264.9375,290.7656 265.1719,290.5 Q265.4219,290.2344 265.7969,290.2344 Q266.1719,290.2344 266.4063,290.5 Q266.6406,290.7656 266.6406,291.375 L266.6406,294 L258.6406,294 Q258.0156,294 257.75,293.7656 Q257.5,293.5313 257.5,293.1406 Q257.5,292.7656 257.7656,292.5313 Q258.0313,292.2969 258.6406,292.2969 L258.9063,292.2969 L258.9063,285.6406 L258.6406,285.6406 Q258.0156,285.6406 257.75,285.4063 Q257.5,285.1719 257.5,284.7813 Q257.5,284.4063 257.75,284.1719 Q258.0156,283.9375 258.6406,283.9375 L266.2656,283.9375 L266.2656,286.5313 Q266.2656,287.1406 266.0313,287.4063 Q265.8125,287.6563 265.4219,287.6563 Q265.0469,287.6563 264.8125,287.4063 Q264.5781,287.1406 264.5781,286.5313 L264.5781,285.6406 L260.6094,285.6406 L260.6094,288.0938 L262.0938,288.0938 Q262.0938,287.4375 262.2188,287.25 Q262.4844,286.8438 262.9531,286.8438 Q263.3281,286.8438 263.5625,287.1094 Q263.7969,287.3594 263.7969,287.9688 L263.7969,289.9375 Q263.7969,290.4844 263.6719,290.6719 Q263.4063,291.0625 262.9531,291.0625 Q262.4844,291.0625 262.2188,290.6563 Q262.0938,290.4688 262.0938,289.7969 L260.6094,289.7969 Z " fill="#000000"/><text fill="#000000" font-family="sans-serif" font-size="14" lengthAdjust="spacing" textLength="65" x="282.25" y="294.7285">BeerStock</text><line style="stroke:#181818;stroke-width:0.5;" x1="214" x2="383" y1="305" y2="305"/><text fill="#000000" font-family="sans-serif" font-size="14" lengthAdjust="spacing" textLength="159" x="219" y="323.5332">PK | id: cuid «generated»</text><line style="stroke:#181818;stroke-width:1.0;" x1="214" x2="383" y1="330.6094" y2="330.6094"/><ellipse cx="224" cy="344.9141" fill="#000000" rx="3" ry="3" style="stroke:#000000;stroke-width:1.0;"/><text fill="#000000" font-family="sans-serif" font-size="14" lengthAdjust="spacing" textLength="133" x="233" y="349.1426">beerName: text «FK»</text><ellipse cx="224" cy="362.5234" fill="#000000" rx="3" ry="3" style="stroke:#000000;stroke-width:1.0;"/><text fill="#000000" font-family="sans-serif" font-size="14" lengthAdjust="spacing" textLength="70" x="233" y="366.752">amount: int</text></g><!--MD5=[81f3b07f4ab3d2463c2182f1db726447]
class SpiritStock--><g id="elem_SpiritStock"><rect codeLine="48" fill="#F1F1F1" height="100.8281" id="SpiritStock" rx="2.5" ry="2.5" style="stroke:#181818;stroke-width:0.5;" width="171" x="630" y="273"/><ellipse cx="677.75" cy="289" fill="#ADD1B2" rx="11" ry="11" style="stroke:#181818;stroke-width:1.0;"/><path d="M676.6094,289.7969 L676.6094,292.2969 L680.9375,292.2969 L680.9375,291.375 Q680.9375,290.7656 681.1719,290.5 Q681.4219,290.2344 681.7969,290.2344 Q682.1719,290.2344 682.4063,290.5 Q682.6406,290.7656 682.6406,291.375 L682.6406,294 L674.6406,294 Q674.0156,294 673.75,293.7656 Q673.5,293.5313 673.5,293.1406 Q673.5,292.7656 673.7656,292.5313 Q674.0313,292.2969 674.6406,292.2969 L674.9063,292.2969 L674.9063,285.6406 L674.6406,285.6406 Q674.0156,285.6406 673.75,285.4063 Q673.5,285.1719 673.5,284.7813 Q673.5,284.4063 673.75,284.1719 Q674.0156,283.9375 674.6406,283.9375 L682.2656,283.9375 L682.2656,286.5313 Q682.2656,287.1406 682.0313,287.4063 Q681.8125,287.6563 681.4219,287.6563 Q681.0469,287.6563 680.8125,287.4063 Q680.5781,287.1406 680.5781,286.5313 L680.5781,285.6406 L676.6094,285.6406 L676.6094,288.0938 L678.0938,288.0938 Q678.0938,287.4375 678.2188,287.25 Q678.4844,286.8438 678.9531,286.8438 Q679.3281,286.8438 679.5625,287.1094 Q679.7969,287.3594 679.7969,287.9688 L679.7969,289.9375 Q679.7969,290.4844 679.6719,290.6719 Q679.4063,291.0625 678.9531,291.0625 Q678.4844,291.0625 678.2188,290.6563 Q678.0938,290.4688 678.0938,289.7969 L676.6094,289.7969 Z " fill="#000000"/><text fill="#000000" font-family="sans-serif" font-size="14" lengthAdjust="spacing" textLength="67" x="698.25" y="294.7285">SpiritStock</text><line style="stroke:#181818;stroke-width:0.5;" x1="631" x2="800" y1="305" y2="305"/><text fill="#000000" font-family="sans-serif" font-size="14" lengthAdjust="spacing" textLength="159" x="636" y="323.5332">PK | id: cuid «generated»</text><line style="stroke:#181818;stroke-width:1.0;" x1="631" x2="800" y1="330.6094" y2="330.6094"/><ellipse cx="641" cy="344.9141" fill="#000000" rx="3" ry="3" style="stroke:#000000;stroke-width:1.0;"/><text fill="#000000" font-family="sans-serif" font-size="14" lengthAdjust="spacing" textLength="134" x="650" y="349.1426">spiritName: text «FK»</text><ellipse cx="641" cy="362.5234" fill="#000000" rx="3" ry="3" style="stroke:#000000;stroke-width:1.0;"/><text fill="#000000" font-family="sans-serif" font-size="14" lengthAdjust="spacing" textLength="70" x="650" y="366.752">amount: int</text></g><!--MD5=[f6dabb7b35addb2a03d033115be5da01]
class Announcements--><g id="elem_Announcements"><rect codeLine="55" fill="#F1F1F1" height="100.8281" id="Announcements" rx="2.5" ry="2.5" style="stroke:#181818;stroke-width:0.5;" width="171" x="687" y="59.5"/><ellipse cx="718.65" cy="75.5" fill="#ADD1B2" rx="11" ry="11" style="stroke:#181818;stroke-width:1.0;"/><path d="M717.5094,76.2969 L717.5094,78.7969 L721.8375,78.7969 L721.8375,77.875 Q721.8375,77.2656 722.0719,77 Q722.3219,76.7344 722.6969,76.7344 Q723.0719,76.7344 723.3063,77 Q723.5406,77.2656 723.5406,77.875 L723.5406,80.5 L715.5406,80.5 Q714.9156,80.5 714.65,80.2656 Q714.4,80.0313 714.4,79.6406 Q714.4,79.2656 714.6656,79.0313 Q714.9313,78.7969 715.5406,78.7969 L715.8063,78.7969 L715.8063,72.1406 L715.5406,72.1406 Q714.9156,72.1406 714.65,71.9063 Q714.4,71.6719 714.4,71.2813 Q714.4,70.9063 714.65,70.6719 Q714.9156,70.4375 715.5406,70.4375 L723.1656,70.4375 L723.1656,73.0313 Q723.1656,73.6406 722.9313,73.9063 Q722.7125,74.1563 722.3219,74.1563 Q721.9469,74.1563 721.7125,73.9063 Q721.4781,73.6406 721.4781,73.0313 L721.4781,72.1406 L717.5094,72.1406 L717.5094,74.5938 L718.9938,74.5938 Q718.9938,73.9375 719.1188,73.75 Q719.3844,73.3438 719.8531,73.3438 Q720.2281,73.3438 720.4625,73.6094 Q720.6969,73.8594 720.6969,74.4688 L720.6969,76.4375 Q720.6969,76.9844 720.5719,77.1719 Q720.3063,77.5625 719.8531,77.5625 Q719.3844,77.5625 719.1188,77.1563 Q718.9938,76.9688 718.9938,76.2969 L717.5094,76.2969 Z " fill="#000000"/><text fill="#000000" font-family="sans-serif" font-size="14" lengthAdjust="spacing" textLength="102" x="736.35" y="81.2285">Announcements</text><line style="stroke:#181818;stroke-width:0.5;" x1="688" x2="857" y1="91.5" y2="91.5"/><text fill="#000000" font-family="sans-serif" font-size="14" lengthAdjust="spacing" textLength="159" x="693" y="110.0332">PK | id: cuid «generated»</text><line style="stroke:#181818;stroke-width:1.0;" x1="688" x2="857" y1="117.1094" y2="117.1094"/><ellipse cx="698" cy="131.4141" fill="#000000" rx="3" ry="3" style="stroke:#000000;stroke-width:1.0;"/><text fill="#000000" font-family="sans-serif" font-size="14" lengthAdjust="spacing" textLength="52" x="707" y="135.6426">title: text</text><ellipse cx="698" cy="149.0234" fill="#000000" rx="3" ry="3" style="stroke:#000000;stroke-width:1.0;"/><text fill="#000000" font-family="sans-serif" font-size="14" lengthAdjust="spacing" textLength="105" x="707" y="153.252">facebookUrl: text</text></g><!--MD5=[db6d18d8099558415abc41d00477ab92]
class Admin--><g id="elem_Admin"><rect codeLine="62" fill="#F1F1F1" height="83.2188" id="Admin" rx="2.5" ry="2.5" style="stroke:#181818;stroke-width:0.5;" width="171" x="893" y="68.5"/><ellipse cx="954.75" cy="84.5" fill="#ADD1B2" rx="11" ry="11" style="stroke:#181818;stroke-width:1.0;"/><path d="M953.6094,85.2969 L953.6094,87.7969 L957.9375,87.7969 L957.9375,86.875 Q957.9375,86.2656 958.1719,86 Q958.4219,85.7344 958.7969,85.7344 Q959.1719,85.7344 959.4063,86 Q959.6406,86.2656 959.6406,86.875 L959.6406,89.5 L951.6406,89.5 Q951.0156,89.5 950.75,89.2656 Q950.5,89.0313 950.5,88.6406 Q950.5,88.2656 950.7656,88.0313 Q951.0313,87.7969 951.6406,87.7969 L951.9063,87.7969 L951.9063,81.1406 L951.6406,81.1406 Q951.0156,81.1406 950.75,80.9063 Q950.5,80.6719 950.5,80.2813 Q950.5,79.9063 950.75,79.6719 Q951.0156,79.4375 951.6406,79.4375 L959.2656,79.4375 L959.2656,82.0313 Q959.2656,82.6406 959.0313,82.9063 Q958.8125,83.1563 958.4219,83.1563 Q958.0469,83.1563 957.8125,82.9063 Q957.5781,82.6406 957.5781,82.0313 L957.5781,81.1406 L953.6094,81.1406 L953.6094,83.5938 L955.0938,83.5938 Q955.0938,82.9375 955.2188,82.75 Q955.4844,82.3438 955.9531,82.3438 Q956.3281,82.3438 956.5625,82.6094 Q956.7969,82.8594 956.7969,83.4688 L956.7969,85.4375 Q956.7969,85.9844 956.6719,86.1719 Q956.4063,86.5625 955.9531,86.5625 Q955.4844,86.5625 955.2188,86.1563 Q955.0938,85.9688 955.0938,85.2969 L953.6094,85.2969 Z " fill="#000000"/><text fill="#000000" font-family="sans-serif" font-size="14" lengthAdjust="spacing" textLength="39" x="975.25" y="90.2285">Admin</text><line style="stroke:#181818;stroke-width:0.5;" x1="894" x2="1063" y1="100.5" y2="100.5"/><text fill="#000000" font-family="sans-serif" font-size="14" lengthAdjust="spacing" textLength="159" x="899" y="119.0332">PK | id: cuid «generated»</text><line style="stroke:#181818;stroke-width:1.0;" x1="894" x2="1063" y1="126.1094" y2="126.1094"/><ellipse cx="904" cy="140.4141" fill="#000000" rx="3" ry="3" style="stroke:#000000;stroke-width:1.0;"/><text fill="#000000" font-family="sans-serif" font-size="14" lengthAdjust="spacing" textLength="65" x="913" y="144.6426">name: text</text></g><!--MD5=[e6119e6920e1081d07f49e03330c7fc8]
link Beer to Brewery--><g id="link_Beer_Brewery"><path codeLine="68" d="M166.75,219.86 C155.12,235.94 143.56,251.92 133.15,266.31 " fill="none" id="Beer-Brewery" style="stroke:#181818;stroke-width:1.0;"/><line style="stroke:#181818;stroke-width:1.0;" x1="134.0358" x2="127.556" y1="271.916" y2="267.2242"/><line style="stroke:#181818;stroke-width:1.0;" x1="135.7952" x2="129.3154" y1="269.4861" y2="264.7943"/><line style="stroke:#181818;stroke-width:1.0;" x1="133.1418" x2="128.45" y1="266.3302" y2="272.81"/><line style="stroke:#181818;stroke-width:1.0;" x1="166.9957" x2="166.8316" y1="219.5079" y2="209.5092"/><line style="stroke:#181818;stroke-width:1.0;" x1="166.9957" x2="176.5484" y1="219.5079" y2="216.5508"/><line style="stroke:#181818;stroke-width:1.0;" x1="166.9957" x2="171.69" y1="219.5079" y2="213.03"/><ellipse cx="163.4749" cy="224.3663" fill="none" rx="4" ry="4" style="stroke:#181818;stroke-width:1.0;"/></g><!--MD5=[b33dde917e41bb0c2994eee23133cec2]
link Spirit to Distillery--><g id="link_Spirit_Distillery"><path codeLine="69" d="M536.49,212.71 C532.06,230.74 527.59,248.92 523.6,265.17 " fill="none" id="Spirit-Distillery" style="stroke:#181818;stroke-width:1.0;"/><line style="stroke:#181818;stroke-width:1.0;" x1="526.5155" x2="518.7444" y1="270.0344" y2="268.1345"/><line style="stroke:#181818;stroke-width:1.0;" x1="527.228" x2="519.4569" y1="267.1202" y2="265.2203"/><line style="stroke:#181818;stroke-width:1.0;" x1="523.5799" x2="521.68" y1="265.1989" y2="272.97"/><line style="stroke:#181818;stroke-width:1.0;" x1="536.5433" x2="532.6348" y1="212.457" y2="203.2525"/><line style="stroke:#181818;stroke-width:1.0;" x1="536.5433" x2="544.2852" y1="212.457" y2="206.1275"/><line style="stroke:#181818;stroke-width:1.0;" x1="536.5433" x2="538.46" y1="212.457" y2="204.69"/><ellipse cx="535.1057" cy="218.2822" fill="none" rx="4" ry="4" style="stroke:#181818;stroke-width:1.0;"/></g><!--MD5=[99d2ccd51ce5eff6d6b14c349d81532c]
link Beer to BeerStock--><g id="link_Beer_BeerStock"><path codeLine="71" d="M273.02,220.84 C276.84,236.06 280.62,251.17 284.06,264.9 " fill="none" id="Beer-BeerStock" style="stroke:#181818;stroke-width:1.0;"/><line style="stroke:#181818;stroke-width:1.0;" x1="284.1064" x2="291.8702" y1="265.0497" y2="271.3523"/><line style="stroke:#181818;stroke-width:1.0;" x1="284.1064" x2="280.2298" y1="265.0497" y2="274.2677"/><line style="stroke:#181818;stroke-width:1.0;" x1="284.1064" x2="286.05" y1="265.0497" y2="272.81"/><ellipse cx="282.6486" cy="259.2295" fill="none" rx="4" ry="4" style="stroke:#181818;stroke-width:1.0;"/><line style="stroke:#181818;stroke-width:1.0;" x1="268.1617" x2="275.922" y1="217.882" y2="215.9383"/><line style="stroke:#181818;stroke-width:1.0;" x1="268.8905" x2="276.6508" y1="220.7921" y2="218.8484"/><line style="stroke:#181818;stroke-width:1.0;" x1="273.0136" x2="271.07" y1="220.7903" y2="213.03"/></g><!--MD5=[bcd40da24f4c251f6fb6a205b3c81aaa]
link Spirit to SpiritStock--><g id="link_Spirit_SpiritStock"><path codeLine="72" d="M634.55,211.33 C648.33,230.24 662.27,249.39 674.61,266.34 " fill="none" id="Spirit-SpiritStock" style="stroke:#181818;stroke-width:1.0;"/><line style="stroke:#181818;stroke-width:1.0;" x1="674.7389" x2="684.2947" y1="266.497" y2="269.4442"/><line style="stroke:#181818;stroke-width:1.0;" x1="674.7389" x2="674.5853" y1="266.497" y2="276.4958"/><line style="stroke:#181818;stroke-width:1.0;" x1="674.7389" x2="679.44" y1="266.497" y2="272.97"/><ellipse cx="671.213" cy="261.6423" fill="none" rx="4" ry="4" style="stroke:#181818;stroke-width:1.0;"/><line style="stroke:#181818;stroke-width:1.0;" x1="628.8421" x2="635.3083" y1="210.2783" y2="205.5679"/><line style="stroke:#181818;stroke-width:1.0;" x1="630.6086" x2="637.0747" y1="212.7031" y2="207.9927"/><line style="stroke:#181818;stroke-width:1.0;" x1="634.4305" x2="629.72" y1="211.1562" y2="204.69"/></g><!--MD5=[cbf8658e8d595bbe9f7c3c1be30c6900]
@startuml er_diagram

entity Brewery {
    PK | id: cuid <<generated>>
    - -
    * name: text
    description: text
}

entity Beer {
    PK | id: cuid <<generated>>
    - -
    * breweryName: text <<FK>>
    * name: text
    description: text
    * type: text
    * vol: decimal
    ibu: int
    * size: int
    image_url: text
}

entity Distillery {
    PK | id: cuid <<generated>>
    - -
    * name: text
    description: text
}

entity Spirit {
    PK | id: cuid <<generated>>
    - -
    * distilleryName: text <<FK>>
    * name: text
    description: text
    * type: text
    * vol: decimal
    * size: int
    image_url: text
}

entity BeerStock {
    PK | id: cuid <<generated>>
    - -
    * beerName: text <<FK>>
    * amount: int
}

entity SpiritStock {
    PK | id: cuid <<generated>>
    - -
    * spiritName: text <<FK>>
    * amount: int
}

entity Announcements {
    PK | id: cuid <<generated>>
    - -
    * title: text
    * facebookUrl: text
}

entity Admin {
    PK | id: cuid <<generated>>
    - -
    * name: text
}

Beer }o- -|| Brewery
Spirit }o- -|| Distillery

Beer ||- -o{ BeerStock
Spirit ||- -o{ SpiritStock

@enduml

PlantUML version 1.2022.7(Mon Aug 22 19:01:30 CEST 2022)
(GPL source distribution)
Java Runtime: Java(TM) SE Runtime Environment
JVM: Java HotSpot(TM) 64-Bit Server VM
Default Encoding: UTF-8
Language: en
Country: US
--></g></svg>